<svg width="32" height="32" viewBox="0 0 32 32" fill="none" xmlns="http://www.w3.org/2000/svg">
<g clip-path="url(#clip0_1_2)">
<path d="M20.9 0H11.1C2.1 0 0 2.1 0 11.1V20.9C0 29.9 2.1 32 11.1 32H20.9C29.9 32 32 29.9 32 20.9V11.1C32 2.1 29.9 0 20.9 0ZM25.8 22.8H23.5C22.6 22.8 22.3 22.1 20.8 20.5C19.4 19.2 18.8 19 18.5 19C18 19 17.9 19.1 17.9 19.8V21.9C17.9 22.5 17.7 22.8 16.2 22.8C13.7 22.8 11 21.3 9.1 18.5C6.2 14.4 5.4 11.4 5.4 10.8C5.4 10.5 5.5 10.1 6.2 10.1H8.5C9.1 10.1 9.3 10.4 9.5 11C10.7 14.3 12.6 17.2 13.4 17.2C13.7 17.2 13.8 17.1 13.8 16.3V13C13.7 11.4 12.9 11.3 12.9 10.7C12.9 10.4 13.1 10.2 13.5 10.2H17.2C17.7 10.2 17.9 10.5 17.9 11.1V15.7C17.9 16.2 18.1 16.4 18.3 16.4C18.6 16.4 18.8 16.2 19.4 15.7C21.1 13.8 22.3 10.9 22.3 10.9C22.5 10.6 22.7 10.2 23.3 10.2H25.6C26.3 10.2 26.5 10.6 26.3 11.1C26 12.5 23.2 16.5 23.2 16.5C23 16.9 22.9 17.1 23.2 17.5C23.4 17.8 24.3 18.5 24.8 19.2C25.8 20.3 26.6 21.3 26.8 21.9C26.8 22.5 26.5 22.8 25.8 22.8Z" fill="black"/>
</g>
<defs>
<clipPath id="clip0_1_2">
<rect width="32" height="32" fill="white"/>
</clipPath>
</defs>
</svg>
